<?xml version="1.0" standalone="no"?>
<!DOCTYPE svg PUBLIC "-//W3C//DTD SVG 20010904//EN"
 "http://www.w3.org/TR/2001/REC-SVG-20010904/DTD/svg10.dtd">
<svg version="1.0" xmlns="http://www.w3.org/2000/svg"
 width="128.000000pt" height="128.000000pt" viewBox="0 0 128.000000 128.000000"
 preserveAspectRatio="xMidYMid meet">

<g transform="translate(0.000000,128.000000) scale(0.100000,-0.100000)"
fill="#000000" stroke="none">
<path d="M490 1250 c-278 -75 -460 -295 -477 -575 -10 -182 54 -352 183 -480
347 -345 933 -183 1054 291 82 320 -105 655 -420 755 -97 31 -245 35 -340 9z
m260 -355 c19 -9 45 -26 57 -37 19 -18 26 -19 54 -9 81 28 103 1 44 -55 -21
-20 -35 -42 -35 -57 0 -21 6 -25 39 -31 72 -11 61 -43 -24 -69 -22 -6 -51 -25
-65 -41 -24 -29 -111 -76 -141 -76 -14 0 -18 -18 -24 -120 -4 -66 -11 -117
-16 -114 -5 3 -9 26 -9 52 0 26 -3 77 -7 115 -4 52 -9 67 -22 67 -31 0 -117
47 -143 78 -14 17 -42 35 -65 41 -82 22 -94 56 -22 67 33 6 39 10 39 31 0 15
-14 37 -35 57 -59 56 -38 83 43 55 28 -9 35 -7 67 16 19 15 52 34 72 41 48 18
147 12 193 -11z"/>
<path d="M570 888 c-37 -10 -90 -44 -90 -57 0 -7 32 -22 119 -58 9 -4 12 0 8
13 -4 12 3 30 18 49 17 21 25 25 25 14 0 -9 7 -22 15 -29 9 -7 13 -21 10 -31
-4 -11 -4 -19 -1 -19 13 0 126 54 126 60 0 14 -37 40 -79 55 -49 17 -99 18
-151 3z"/>
<path d="M430 732 c0 -19 6 -21 85 -21 99 0 113 14 23 22 -35 3 -73 9 -85 13
-19 5 -23 2 -23 -14z"/>
<path d="M800 740 c-14 -4 -46 -8 -72 -9 -86 -2 -52 -21 37 -21 78 0 85 2 85
20 0 21 -9 23 -50 10z"/>
<path d="M555 655 c-22 -7 -53 -16 -69 -20 l-29 -6 24 -26 c26 -28 93 -62 122
-63 14 0 17 9 17 49 0 51 -7 82 -19 80 -3 0 -24 -7 -46 -14z"/>
<path d="M666 654 c-3 -9 -6 -38 -6 -65 0 -40 3 -49 18 -49 28 1 95 35 121 63
l24 26 -29 6 c-16 4 -49 13 -73 21 -54 17 -48 17 -55 -2z"/>
</g>
</svg>
